<mxfile host="app.diagrams.net" agent="Mozilla/5.0 (Windows NT 10.0; Win64; x64) AppleWebKit/537.36 (KHTML, like Gecko) Chrome/134.0.0.0 Safari/537.36 Edg/134.0.0.0" version="26.1.0">
  <diagram id="C5RBs43oDa-KdzZeNtuy" name="Page-1">
    <mxGraphModel dx="1412" dy="798" grid="0" gridSize="10" guides="1" tooltips="1" connect="1" arrows="1" fold="1" page="1" pageScale="1" pageWidth="1169" pageHeight="827" background="none" math="0" shadow="0">
      <root>
        <mxCell id="WIyWlLk6GJQsqaUBKTNV-0" />
        <mxCell id="WIyWlLk6GJQsqaUBKTNV-1" parent="WIyWlLk6GJQsqaUBKTNV-0" />
        <mxCell id="zkfFHV4jXpPFQw0GAbJ--6" value="class Country" style="swimlane;fontStyle=0;align=center;verticalAlign=top;childLayout=stackLayout;horizontal=1;startSize=28;horizontalStack=0;resizeParent=1;resizeLast=0;collapsible=1;marginBottom=0;rounded=0;shadow=0;strokeWidth=1;fontFamily=Georgia;" parent="WIyWlLk6GJQsqaUBKTNV-1" vertex="1">
          <mxGeometry x="68" y="761" width="205" height="151" as="geometry">
            <mxRectangle x="130" y="380" width="160" height="26" as="alternateBounds" />
          </mxGeometry>
        </mxCell>
        <mxCell id="ZTnOvZtdfaaPtR5UreDa-0" value="+_construct(&#xa;        $shortName string,&#xa;        $fullName string,&#xa;        $twoLetterCode string,&#xa;        $threeLetterCode string,&#xa;        $digitalCode int,&#xa;        $population int,&#xa;        $square int)" style="text;align=left;verticalAlign=top;spacingLeft=4;spacingRight=4;overflow=hidden;rotatable=0;points=[[0,0.5],[1,0.5]];portConstraint=eastwest;fontStyle=0;fontFamily=Georgia;textDirection=ltr;" parent="zkfFHV4jXpPFQw0GAbJ--6" vertex="1">
          <mxGeometry y="28" width="205" height="122" as="geometry" />
        </mxCell>
        <mxCell id="zkfFHV4jXpPFQw0GAbJ--17" value="class &#xa;CountryController  " style="swimlane;fontStyle=0;align=center;verticalAlign=top;childLayout=stackLayout;horizontal=1;startSize=40;horizontalStack=0;resizeParent=1;resizeLast=0;collapsible=1;marginBottom=0;rounded=0;shadow=0;strokeWidth=1;fontSize=12;fontFamily=Georgia;" parent="WIyWlLk6GJQsqaUBKTNV-1" vertex="1">
          <mxGeometry x="360" y="236" width="426" height="185" as="geometry">
            <mxRectangle x="550" y="140" width="160" height="26" as="alternateBounds" />
          </mxGeometry>
        </mxCell>
        <mxCell id="zkfFHV4jXpPFQw0GAbJ--23" value="" style="line;html=1;strokeWidth=1;align=left;verticalAlign=middle;spacingTop=-1;spacingLeft=3;spacingRight=3;rotatable=0;labelPosition=right;points=[];portConstraint=eastwest;" parent="zkfFHV4jXpPFQw0GAbJ--17" vertex="1">
          <mxGeometry y="40" width="426" height="8" as="geometry" />
        </mxCell>
        <mxCell id="zkfFHV4jXpPFQw0GAbJ--20" value="+_construct (-$countries CountryScenarios {readonly})" style="text;align=left;verticalAlign=top;spacingLeft=4;spacingRight=4;overflow=hidden;rotatable=0;points=[[0,0.5],[1,0.5]];portConstraint=eastwest;rounded=0;shadow=0;html=0;fontSize=12;fontFamily=Georgia;" parent="zkfFHV4jXpPFQw0GAbJ--17" vertex="1">
          <mxGeometry y="48" width="426" height="26" as="geometry" />
        </mxCell>
        <mxCell id="zkfFHV4jXpPFQw0GAbJ--25" value="+ getAll():JsonResponse&#xa;+ getByCode($code string):JsonResponse&#xa;+ add($country Country #[MapRequestPayload]):JsonResponse&#xa;+ delete($code string):JsonResponse&#xa;+ edit($code string, $country Country #[MapRequestPayload]):JsonResponse&#xa;- buildErrorResponse($ex Exception):JsonResponse&#xa;- buildCountriesPreview($country Country): Country " style="text;align=left;verticalAlign=top;spacingLeft=4;spacingRight=4;overflow=hidden;rotatable=0;points=[[0,0.5],[1,0.5]];portConstraint=eastwest;fontSize=12;fontFamily=Georgia;fontColor=default;" parent="zkfFHV4jXpPFQw0GAbJ--17" vertex="1">
          <mxGeometry y="74" width="426" height="111" as="geometry" />
        </mxCell>
        <mxCell id="5Oo_oEe4z2o5IKmWvlLE-2" value="&lt;span style=&quot;font-style: italic; text-wrap-mode: nowrap;&quot;&gt;AbstractController&lt;/span&gt;" style="rounded=0;whiteSpace=wrap;html=1;" parent="WIyWlLk6GJQsqaUBKTNV-1" vertex="1">
          <mxGeometry x="239" y="35" width="138" height="35" as="geometry" />
        </mxCell>
        <mxCell id="5Oo_oEe4z2o5IKmWvlLE-12" value="" style="endArrow=open;endSize=12;dashed=1;html=1;rounded=0;exitX=1;exitY=0.5;exitDx=0;exitDy=0;" parent="WIyWlLk6GJQsqaUBKTNV-1" source="5Oo_oEe4z2o5IKmWvlLE-2" target="zkfFHV4jXpPFQw0GAbJ--17" edge="1">
          <mxGeometry width="160" relative="1" as="geometry">
            <mxPoint x="493.5" y="63" as="sourcePoint" />
            <mxPoint x="443" y="289" as="targetPoint" />
            <Array as="points" />
          </mxGeometry>
        </mxCell>
        <mxCell id="5Oo_oEe4z2o5IKmWvlLE-18" value="class  RootController" style="swimlane;fontStyle=0;align=center;verticalAlign=top;childLayout=stackLayout;horizontal=1;startSize=27;horizontalStack=0;resizeParent=1;resizeLast=0;collapsible=1;marginBottom=0;rounded=0;shadow=0;strokeWidth=1;fontFamily=Georgia;" parent="WIyWlLk6GJQsqaUBKTNV-1" vertex="1">
          <mxGeometry x="5" y="143" width="243" height="81" as="geometry">
            <mxRectangle x="130" y="380" width="160" height="26" as="alternateBounds" />
          </mxGeometry>
        </mxCell>
        <mxCell id="5Oo_oEe4z2o5IKmWvlLE-23" value="+ index($request Request ):JsonResponse&#xa;+ ping():JsonResponse" style="text;align=left;verticalAlign=top;spacingLeft=4;spacingRight=4;overflow=hidden;rotatable=0;points=[[0,0.5],[1,0.5]];portConstraint=eastwest;fontFamily=Georgia;" parent="5Oo_oEe4z2o5IKmWvlLE-18" vertex="1">
          <mxGeometry y="27" width="243" height="45" as="geometry" />
        </mxCell>
        <mxCell id="5Oo_oEe4z2o5IKmWvlLE-24" value="" style="endArrow=open;endSize=12;dashed=1;html=1;rounded=0;exitX=0;exitY=0.5;exitDx=0;exitDy=0;entryX=0.5;entryY=0;entryDx=0;entryDy=0;" parent="WIyWlLk6GJQsqaUBKTNV-1" source="5Oo_oEe4z2o5IKmWvlLE-2" target="5Oo_oEe4z2o5IKmWvlLE-18" edge="1">
          <mxGeometry width="160" relative="1" as="geometry">
            <mxPoint x="623" y="46.5" as="sourcePoint" />
            <mxPoint x="875" y="129" as="targetPoint" />
            <Array as="points" />
          </mxGeometry>
        </mxCell>
        <mxCell id="5Oo_oEe4z2o5IKmWvlLE-25" value="class&#xa;DuplicatedCodeCountryException " style="swimlane;fontStyle=0;align=center;verticalAlign=top;childLayout=stackLayout;horizontal=1;startSize=40;horizontalStack=0;resizeParent=1;resizeLast=0;collapsible=1;marginBottom=0;rounded=0;shadow=0;strokeWidth=1;fontFamily=Georgia;fontSize=12;" parent="WIyWlLk6GJQsqaUBKTNV-1" vertex="1">
          <mxGeometry x="924" y="134.94" width="379" height="106" as="geometry">
            <mxRectangle x="130" y="380" width="160" height="26" as="alternateBounds" />
          </mxGeometry>
        </mxCell>
        <mxCell id="5Oo_oEe4z2o5IKmWvlLE-26" value="+_construct($duplicatedCode: string , $previous: ?Throwable = null)&#xa;+message string&#xa;+ code int&#xa;+ previos ?Throwable " style="text;align=left;verticalAlign=top;spacingLeft=4;spacingRight=4;overflow=hidden;rotatable=0;points=[[0,0.5],[1,0.5]];portConstraint=eastwest;fontFamily=Georgia;fontColor=default;" parent="5Oo_oEe4z2o5IKmWvlLE-25" vertex="1">
          <mxGeometry y="40" width="379" height="66" as="geometry" />
        </mxCell>
        <mxCell id="5Oo_oEe4z2o5IKmWvlLE-31" value="class &#xa;CountriesScenarios" style="swimlane;fontStyle=0;align=center;verticalAlign=top;childLayout=stackLayout;horizontal=1;startSize=40;horizontalStack=0;resizeParent=1;resizeLast=0;collapsible=1;marginBottom=0;rounded=0;shadow=0;strokeWidth=1;fontFamily=Georgia;" parent="WIyWlLk6GJQsqaUBKTNV-1" vertex="1">
          <mxGeometry x="13" y="430" width="291" height="235" as="geometry">
            <mxRectangle x="130" y="380" width="160" height="26" as="alternateBounds" />
          </mxGeometry>
        </mxCell>
        <mxCell id="5Oo_oEe4z2o5IKmWvlLE-32" value="- $repository:CounryRepository {readonly}" style="text;align=left;verticalAlign=top;spacingLeft=4;spacingRight=4;overflow=hidden;rotatable=0;points=[[0,0.5],[1,0.5]];portConstraint=eastwest;fontFamily=Georgia;" parent="5Oo_oEe4z2o5IKmWvlLE-31" vertex="1">
          <mxGeometry y="40" width="291" height="26" as="geometry" />
        </mxCell>
        <mxCell id="5Oo_oEe4z2o5IKmWvlLE-34" value="" style="line;html=1;strokeWidth=1;align=left;verticalAlign=middle;spacingTop=-1;spacingLeft=3;spacingRight=3;rotatable=0;labelPosition=right;points=[];portConstraint=eastwest;" parent="5Oo_oEe4z2o5IKmWvlLE-31" vertex="1">
          <mxGeometry y="66" width="291" height="8" as="geometry" />
        </mxCell>
        <mxCell id="5Oo_oEe4z2o5IKmWvlLE-35" value="+_construct ($repository: CountryRepository)&#xa; +getAll(): array&#xa;+getByCode($code string ) : Country&#xa;+store($country Country): void&#xa;+ delete($code string) : void&#xa;+edit($code string, $country Country): void&#xa;-validateCode($code string): bool&#xa;-validateCountry($contry Country): void&#xa;-checkUniqueCountryData($country Country):void&#xa;-checkForDublicayeCode($country Country, $existingCountry Country) bool" style="text;align=left;verticalAlign=top;spacingLeft=4;spacingRight=4;overflow=hidden;rotatable=0;points=[[0,0.5],[1,0.5]];portConstraint=eastwest;fontStyle=0;fontFamily=Georgia;" parent="5Oo_oEe4z2o5IKmWvlLE-31" vertex="1">
          <mxGeometry y="74" width="291" height="161" as="geometry" />
        </mxCell>
        <mxCell id="5Oo_oEe4z2o5IKmWvlLE-37" value="interface&#xa;CountryRepository" style="swimlane;fontStyle=0;align=center;verticalAlign=top;childLayout=stackLayout;horizontal=1;startSize=43;horizontalStack=0;resizeParent=1;resizeLast=0;collapsible=1;marginBottom=0;rounded=0;shadow=0;strokeWidth=1;fontFamily=Georgia;" parent="WIyWlLk6GJQsqaUBKTNV-1" vertex="1">
          <mxGeometry x="364" y="484" width="359" height="151" as="geometry">
            <mxRectangle x="130" y="380" width="160" height="26" as="alternateBounds" />
          </mxGeometry>
        </mxCell>
        <mxCell id="5Oo_oEe4z2o5IKmWvlLE-40" value="" style="line;html=1;strokeWidth=1;align=left;verticalAlign=middle;spacingTop=-1;spacingLeft=3;spacingRight=3;rotatable=0;labelPosition=right;points=[];portConstraint=eastwest;" parent="5Oo_oEe4z2o5IKmWvlLE-37" vertex="1">
          <mxGeometry y="43" width="359" height="8" as="geometry" />
        </mxCell>
        <mxCell id="5Oo_oEe4z2o5IKmWvlLE-41" value="selectAll(): array;&#xa;selectByCode($code:string): ?Country;&#xa;selectByName($shortName:string, $$fullName:string): ?Country;&#xa;insert($country:Country): void;&#xa;remove($code:string) : void;&#xa;update($code:string, $country:Country ) : void;" style="text;align=left;verticalAlign=top;spacingLeft=4;spacingRight=4;overflow=hidden;rotatable=0;points=[[0,0.5],[1,0.5]];portConstraint=eastwest;fontStyle=0;fontFamily=Georgia;" parent="5Oo_oEe4z2o5IKmWvlLE-37" vertex="1">
          <mxGeometry y="51" width="359" height="100" as="geometry" />
        </mxCell>
        <mxCell id="5Oo_oEe4z2o5IKmWvlLE-54" value="class&#xa;CountryNotFoundException " style="swimlane;fontStyle=0;align=center;verticalAlign=top;childLayout=stackLayout;horizontal=1;startSize=38;horizontalStack=0;resizeParent=1;resizeLast=0;collapsible=1;marginBottom=0;rounded=0;shadow=0;strokeWidth=1;fontFamily=Georgia;" parent="WIyWlLk6GJQsqaUBKTNV-1" vertex="1">
          <mxGeometry x="924" y="310.94" width="361" height="106" as="geometry">
            <mxRectangle x="130" y="380" width="160" height="26" as="alternateBounds" />
          </mxGeometry>
        </mxCell>
        <mxCell id="5Oo_oEe4z2o5IKmWvlLE-55" value="+_constructor($notFoundCode,  $previous ?Throwable = null )&#xa;+message string&#xa;+ code int&#xa;+ previos ?Throwable&#xa;" style="text;align=left;verticalAlign=top;spacingLeft=4;spacingRight=4;overflow=hidden;rotatable=0;points=[[0,0.5],[1,0.5]];portConstraint=eastwest;fontFamily=Georgia;" parent="5Oo_oEe4z2o5IKmWvlLE-54" vertex="1">
          <mxGeometry y="38" width="361" height="68" as="geometry" />
        </mxCell>
        <mxCell id="5Oo_oEe4z2o5IKmWvlLE-56" value="class &#xa;CountryInvalidCodeException " style="swimlane;fontStyle=0;align=center;verticalAlign=top;childLayout=stackLayout;horizontal=1;startSize=39;horizontalStack=0;resizeParent=1;resizeLast=0;collapsible=1;marginBottom=0;rounded=0;shadow=0;strokeWidth=1;fontFamily=Georgia;" parent="WIyWlLk6GJQsqaUBKTNV-1" vertex="1">
          <mxGeometry x="926" y="487" width="376" height="104" as="geometry">
            <mxRectangle x="130" y="380" width="160" height="26" as="alternateBounds" />
          </mxGeometry>
        </mxCell>
        <mxCell id="5Oo_oEe4z2o5IKmWvlLE-57" value="+_construct($invalidCode, $message, $previous: ?Throwable = null) &#xa;+message string&#xa;+ code int&#xa;+ previos ?Throwable" style="text;align=left;verticalAlign=top;spacingLeft=4;spacingRight=4;overflow=hidden;rotatable=0;points=[[0,0.5],[1,0.5]];portConstraint=eastwest;fontFamily=Georgia;" parent="5Oo_oEe4z2o5IKmWvlLE-56" vertex="1">
          <mxGeometry y="39" width="376" height="64" as="geometry" />
        </mxCell>
        <mxCell id="5Oo_oEe4z2o5IKmWvlLE-58" value="class  &#xa;ErrorCodes" style="swimlane;fontStyle=0;align=center;verticalAlign=top;childLayout=stackLayout;horizontal=1;startSize=46;horizontalStack=0;resizeParent=1;resizeLast=0;collapsible=1;marginBottom=0;rounded=0;shadow=0;strokeWidth=1;fontFamily=Georgia;" parent="WIyWlLk6GJQsqaUBKTNV-1" vertex="1">
          <mxGeometry x="1347" y="308" width="218" height="103" as="geometry">
            <mxRectangle x="130" y="380" width="160" height="26" as="alternateBounds" />
          </mxGeometry>
        </mxCell>
        <mxCell id="5Oo_oEe4z2o5IKmWvlLE-59" value="INVALID_CODE_ERROR: const&#xa;NOT_FOUND_ERROR: const &#xa;DUPLICATED_CODE_ERROR: const" style="text;align=left;verticalAlign=top;spacingLeft=4;spacingRight=4;overflow=hidden;rotatable=0;points=[[0,0.5],[1,0.5]];portConstraint=eastwest;fontFamily=Georgia;" parent="5Oo_oEe4z2o5IKmWvlLE-58" vertex="1">
          <mxGeometry y="46" width="218" height="54" as="geometry" />
        </mxCell>
        <mxCell id="vJWg8JsjFEynBR5mHJqL-67" style="edgeStyle=orthogonalEdgeStyle;rounded=0;orthogonalLoop=1;jettySize=auto;html=1;entryX=0.5;entryY=0;entryDx=0;entryDy=0;exitX=0.25;exitY=1;exitDx=0;exitDy=0;" parent="WIyWlLk6GJQsqaUBKTNV-1" source="5Oo_oEe4z2o5IKmWvlLE-74" target="vJWg8JsjFEynBR5mHJqL-12" edge="1">
          <mxGeometry relative="1" as="geometry" />
        </mxCell>
        <mxCell id="5Oo_oEe4z2o5IKmWvlLE-74" value="class&#xa;CountryStorage " style="swimlane;fontStyle=0;align=center;verticalAlign=top;childLayout=stackLayout;horizontal=1;startSize=40;horizontalStack=0;resizeParent=1;resizeLast=0;collapsible=1;marginBottom=0;rounded=0;shadow=0;strokeWidth=1;fontFamily=Georgia;" parent="WIyWlLk6GJQsqaUBKTNV-1" vertex="1">
          <mxGeometry x="364" y="721" width="359" height="186" as="geometry">
            <mxRectangle x="130" y="380" width="160" height="26" as="alternateBounds" />
          </mxGeometry>
        </mxCell>
        <mxCell id="5Oo_oEe4z2o5IKmWvlLE-75" value="- $sqlHelper SqlHelper readonly" style="text;align=left;verticalAlign=top;spacingLeft=4;spacingRight=4;overflow=hidden;rotatable=0;points=[[0,0.5],[1,0.5]];portConstraint=eastwest;fontFamily=Georgia;" parent="5Oo_oEe4z2o5IKmWvlLE-74" vertex="1">
          <mxGeometry y="40" width="359" height="26" as="geometry" />
        </mxCell>
        <mxCell id="5Oo_oEe4z2o5IKmWvlLE-76" value="" style="line;html=1;strokeWidth=1;align=left;verticalAlign=middle;spacingTop=-1;spacingLeft=3;spacingRight=3;rotatable=0;labelPosition=right;points=[];portConstraint=eastwest;" parent="5Oo_oEe4z2o5IKmWvlLE-74" vertex="1">
          <mxGeometry y="66" width="359" height="8" as="geometry" />
        </mxCell>
        <mxCell id="5Oo_oEe4z2o5IKmWvlLE-77" value="+_construct($sqlHelper SqlHelper)+selectAll(): array&#xa;+ selectByCode($code: string): ?Country&#xa;+ selectByName($shortName string, $fullName string): ?Country&#xa;+insert($country Country): void&#xa;+ remove($code: string):void&#xa;+ update($code: string, $country Country) : void&#xa;&#xa;" style="text;align=left;verticalAlign=top;spacingLeft=4;spacingRight=4;overflow=hidden;rotatable=0;points=[[0,0.5],[1,0.5]];portConstraint=eastwest;fontStyle=0;fontFamily=Georgia;" parent="5Oo_oEe4z2o5IKmWvlLE-74" vertex="1">
          <mxGeometry y="74" width="359" height="111" as="geometry" />
        </mxCell>
        <mxCell id="vJWg8JsjFEynBR5mHJqL-8" value="class&lt;div&gt;SqlHelper&lt;/div&gt;" style="swimlane;fontStyle=0;childLayout=stackLayout;horizontal=1;startSize=26;fillColor=none;horizontalStack=0;resizeParent=1;resizeParentMax=0;resizeLast=0;collapsible=1;marginBottom=0;whiteSpace=wrap;html=1;" parent="WIyWlLk6GJQsqaUBKTNV-1" vertex="1">
          <mxGeometry x="572" y="995" width="242" height="78" as="geometry" />
        </mxCell>
        <mxCell id="vJWg8JsjFEynBR5mHJqL-9" value="&lt;span style=&quot;font-family: Georgia; text-wrap-mode: nowrap;&quot;&gt;+pingDb() : void&lt;/span&gt;" style="text;strokeColor=none;fillColor=none;align=left;verticalAlign=top;spacingLeft=4;spacingRight=4;overflow=hidden;rotatable=0;points=[[0,0.5],[1,0.5]];portConstraint=eastwest;whiteSpace=wrap;html=1;" parent="vJWg8JsjFEynBR5mHJqL-8" vertex="1">
          <mxGeometry y="26" width="242" height="26" as="geometry" />
        </mxCell>
        <mxCell id="vJWg8JsjFEynBR5mHJqL-10" value="&lt;span style=&quot;font-family: Georgia; text-wrap-mode: nowrap;&quot;&gt;+openDbConnection(): mysqli&lt;/span&gt;" style="text;strokeColor=none;fillColor=none;align=left;verticalAlign=top;spacingLeft=4;spacingRight=4;overflow=hidden;rotatable=0;points=[[0,0.5],[1,0.5]];portConstraint=eastwest;whiteSpace=wrap;html=1;" parent="vJWg8JsjFEynBR5mHJqL-8" vertex="1">
          <mxGeometry y="52" width="242" height="26" as="geometry" />
        </mxCell>
        <mxCell id="vJWg8JsjFEynBR5mHJqL-12" value="&amp;lt;&amp;lt;enumiration&amp;gt;&amp;gt;&lt;div&gt;searheCode&lt;/div&gt;" style="swimlane;fontStyle=0;childLayout=stackLayout;horizontal=1;startSize=26;fillColor=none;horizontalStack=0;resizeParent=1;resizeParentMax=0;resizeLast=0;collapsible=1;marginBottom=0;whiteSpace=wrap;html=1;" parent="WIyWlLk6GJQsqaUBKTNV-1" vertex="1">
          <mxGeometry x="358" y="969" width="190" height="104" as="geometry" />
        </mxCell>
        <mxCell id="vJWg8JsjFEynBR5mHJqL-13" value="TWO_LETTER_CODE : string" style="text;strokeColor=none;fillColor=none;align=left;verticalAlign=top;spacingLeft=4;spacingRight=4;overflow=hidden;rotatable=0;points=[[0,0.5],[1,0.5]];portConstraint=eastwest;whiteSpace=wrap;html=1;" parent="vJWg8JsjFEynBR5mHJqL-12" vertex="1">
          <mxGeometry y="26" width="190" height="26" as="geometry" />
        </mxCell>
        <mxCell id="vJWg8JsjFEynBR5mHJqL-14" value="THREE_LETTER_CODE : string" style="text;strokeColor=none;fillColor=none;align=left;verticalAlign=top;spacingLeft=4;spacingRight=4;overflow=hidden;rotatable=0;points=[[0,0.5],[1,0.5]];portConstraint=eastwest;whiteSpace=wrap;html=1;" parent="vJWg8JsjFEynBR5mHJqL-12" vertex="1">
          <mxGeometry y="52" width="190" height="26" as="geometry" />
        </mxCell>
        <mxCell id="vJWg8JsjFEynBR5mHJqL-15" value="DIGITAL_CODE: string" style="text;strokeColor=none;fillColor=none;align=left;verticalAlign=top;spacingLeft=4;spacingRight=4;overflow=hidden;rotatable=0;points=[[0,0.5],[1,0.5]];portConstraint=eastwest;whiteSpace=wrap;html=1;" parent="vJWg8JsjFEynBR5mHJqL-12" vertex="1">
          <mxGeometry y="78" width="190" height="26" as="geometry" />
        </mxCell>
        <mxCell id="vJWg8JsjFEynBR5mHJqL-31" value="" style="edgeStyle=none;html=1;endSize=12;endArrow=block;endFill=0;dashed=1;rounded=0;entryX=0.499;entryY=0.99;entryDx=0;entryDy=0;entryPerimeter=0;exitX=0.5;exitY=0;exitDx=0;exitDy=0;" parent="WIyWlLk6GJQsqaUBKTNV-1" source="5Oo_oEe4z2o5IKmWvlLE-74" target="5Oo_oEe4z2o5IKmWvlLE-41" edge="1">
          <mxGeometry width="160" relative="1" as="geometry">
            <mxPoint x="147" y="932" as="sourcePoint" />
            <mxPoint x="307" y="932" as="targetPoint" />
          </mxGeometry>
        </mxCell>
        <mxCell id="vJWg8JsjFEynBR5mHJqL-35" value="Exeption" style="html=1;whiteSpace=wrap;" parent="WIyWlLk6GJQsqaUBKTNV-1" vertex="1">
          <mxGeometry x="1009" y="250" width="195" height="29" as="geometry" />
        </mxCell>
        <mxCell id="vJWg8JsjFEynBR5mHJqL-37" value="" style="endArrow=block;dashed=1;endFill=0;endSize=12;html=1;rounded=0;exitX=0.47;exitY=0.007;exitDx=0;exitDy=0;exitPerimeter=0;" parent="WIyWlLk6GJQsqaUBKTNV-1" edge="1">
          <mxGeometry width="160" relative="1" as="geometry">
            <mxPoint x="1104.06" y="306.9980000000001" as="sourcePoint" />
            <mxPoint x="1104" y="277.06" as="targetPoint" />
          </mxGeometry>
        </mxCell>
        <mxCell id="vJWg8JsjFEynBR5mHJqL-38" value="Exeption" style="html=1;whiteSpace=wrap;" parent="WIyWlLk6GJQsqaUBKTNV-1" vertex="1">
          <mxGeometry x="1008" y="78" width="192" height="29" as="geometry" />
        </mxCell>
        <mxCell id="vJWg8JsjFEynBR5mHJqL-39" value="" style="endArrow=block;dashed=1;endFill=0;endSize=12;html=1;rounded=0;exitX=0.47;exitY=0.007;exitDx=0;exitDy=0;exitPerimeter=0;" parent="WIyWlLk6GJQsqaUBKTNV-1" edge="1">
          <mxGeometry width="160" relative="1" as="geometry">
            <mxPoint x="1109.06" y="136.94" as="sourcePoint" />
            <mxPoint x="1109" y="107.0019999999999" as="targetPoint" />
          </mxGeometry>
        </mxCell>
        <mxCell id="vJWg8JsjFEynBR5mHJqL-40" value="Exeption" style="html=1;whiteSpace=wrap;" parent="WIyWlLk6GJQsqaUBKTNV-1" vertex="1">
          <mxGeometry x="1005" y="428" width="195" height="29" as="geometry" />
        </mxCell>
        <mxCell id="vJWg8JsjFEynBR5mHJqL-41" value="" style="endArrow=block;dashed=1;endFill=0;endSize=12;html=1;rounded=0;exitX=0.47;exitY=0.007;exitDx=0;exitDy=0;exitPerimeter=0;" parent="WIyWlLk6GJQsqaUBKTNV-1" edge="1">
          <mxGeometry width="160" relative="1" as="geometry">
            <mxPoint x="1103" y="487" as="sourcePoint" />
            <mxPoint x="1102.94" y="457.0619999999999" as="targetPoint" />
          </mxGeometry>
        </mxCell>
        <mxCell id="vJWg8JsjFEynBR5mHJqL-44" value="" style="edgeStyle=none;html=1;endArrow=open;endSize=12;dashed=1;verticalAlign=bottom;rounded=0;entryX=0.5;entryY=0;entryDx=0;entryDy=0;exitX=1;exitY=0.5;exitDx=0;exitDy=0;" parent="WIyWlLk6GJQsqaUBKTNV-1" source="5Oo_oEe4z2o5IKmWvlLE-26" target="5Oo_oEe4z2o5IKmWvlLE-58" edge="1">
          <mxGeometry width="160" relative="1" as="geometry">
            <mxPoint x="1074" y="215" as="sourcePoint" />
            <mxPoint x="1234" y="215" as="targetPoint" />
            <Array as="points">
              <mxPoint x="1452" y="208" />
            </Array>
          </mxGeometry>
        </mxCell>
        <mxCell id="vJWg8JsjFEynBR5mHJqL-45" value="" style="edgeStyle=none;html=1;endArrow=open;endSize=12;dashed=1;verticalAlign=bottom;rounded=0;entryX=0;entryY=0.5;entryDx=0;entryDy=0;exitX=1;exitY=0.5;exitDx=0;exitDy=0;" parent="WIyWlLk6GJQsqaUBKTNV-1" source="5Oo_oEe4z2o5IKmWvlLE-55" target="5Oo_oEe4z2o5IKmWvlLE-59" edge="1">
          <mxGeometry width="160" relative="1" as="geometry">
            <mxPoint x="1173" y="593" as="sourcePoint" />
            <mxPoint x="1329" y="758" as="targetPoint" />
            <Array as="points" />
          </mxGeometry>
        </mxCell>
        <mxCell id="vJWg8JsjFEynBR5mHJqL-46" value="" style="edgeStyle=none;html=1;endArrow=open;endSize=12;dashed=1;verticalAlign=bottom;rounded=0;entryX=0.482;entryY=1.074;entryDx=0;entryDy=0;exitX=1;exitY=0.5;exitDx=0;exitDy=0;entryPerimeter=0;" parent="WIyWlLk6GJQsqaUBKTNV-1" source="5Oo_oEe4z2o5IKmWvlLE-57" target="5Oo_oEe4z2o5IKmWvlLE-59" edge="1">
          <mxGeometry width="160" relative="1" as="geometry">
            <mxPoint x="1136" y="563" as="sourcePoint" />
            <mxPoint x="1187" y="591" as="targetPoint" />
            <Array as="points">
              <mxPoint x="1452" y="560" />
            </Array>
          </mxGeometry>
        </mxCell>
        <mxCell id="vJWg8JsjFEynBR5mHJqL-60" value="" style="endArrow=diamondThin;endFill=1;endSize=24;html=1;rounded=0;entryX=0.908;entryY=1.036;entryDx=0;entryDy=0;exitX=0.5;exitY=0;exitDx=0;exitDy=0;entryPerimeter=0;" parent="WIyWlLk6GJQsqaUBKTNV-1" source="vJWg8JsjFEynBR5mHJqL-8" target="5Oo_oEe4z2o5IKmWvlLE-77" edge="1">
          <mxGeometry width="160" relative="1" as="geometry">
            <mxPoint x="635" y="624" as="sourcePoint" />
            <mxPoint x="636" y="682" as="targetPoint" />
            <Array as="points" />
          </mxGeometry>
        </mxCell>
        <mxCell id="vJWg8JsjFEynBR5mHJqL-64" style="edgeStyle=orthogonalEdgeStyle;rounded=0;orthogonalLoop=1;jettySize=auto;html=1;" parent="WIyWlLk6GJQsqaUBKTNV-1" source="5Oo_oEe4z2o5IKmWvlLE-77" target="ZTnOvZtdfaaPtR5UreDa-0" edge="1">
          <mxGeometry relative="1" as="geometry" />
        </mxCell>
        <mxCell id="vJWg8JsjFEynBR5mHJqL-65" value="" style="endArrow=open;endSize=12;dashed=1;html=1;rounded=0;entryX=0;entryY=0.5;entryDx=0;entryDy=0;exitX=0.995;exitY=0.414;exitDx=0;exitDy=0;exitPerimeter=0;" parent="WIyWlLk6GJQsqaUBKTNV-1" source="zkfFHV4jXpPFQw0GAbJ--25" target="5Oo_oEe4z2o5IKmWvlLE-26" edge="1">
          <mxGeometry width="160" relative="1" as="geometry">
            <mxPoint x="786" y="319" as="sourcePoint" />
            <mxPoint x="898" y="473" as="targetPoint" />
            <Array as="points">
              <mxPoint x="861" y="356" />
              <mxPoint x="859" y="208" />
            </Array>
          </mxGeometry>
        </mxCell>
        <mxCell id="vJWg8JsjFEynBR5mHJqL-66" value="" style="endArrow=open;endSize=12;dashed=1;html=1;rounded=0;entryX=0;entryY=0.5;entryDx=0;entryDy=0;" parent="WIyWlLk6GJQsqaUBKTNV-1" edge="1">
          <mxGeometry width="160" relative="1" as="geometry">
            <mxPoint x="784" y="357" as="sourcePoint" />
            <mxPoint x="928" y="558" as="targetPoint" />
            <Array as="points">
              <mxPoint x="861" y="357" />
              <mxPoint x="859" y="556" />
            </Array>
          </mxGeometry>
        </mxCell>
        <mxCell id="vJWg8JsjFEynBR5mHJqL-69" value="" style="endArrow=open;endSize=12;dashed=1;html=1;rounded=0;entryX=0;entryY=0.089;entryDx=0;entryDy=0;exitX=0.998;exitY=0.423;exitDx=0;exitDy=0;exitPerimeter=0;entryPerimeter=0;" parent="WIyWlLk6GJQsqaUBKTNV-1" source="zkfFHV4jXpPFQw0GAbJ--25" target="5Oo_oEe4z2o5IKmWvlLE-55" edge="1">
          <mxGeometry width="160" relative="1" as="geometry">
            <mxPoint x="747" y="68" as="sourcePoint" />
            <mxPoint x="859" y="222" as="targetPoint" />
            <Array as="points" />
          </mxGeometry>
        </mxCell>
        <mxCell id="TM20qlrnrpLHod3Iwz9V-0" value="" style="endArrow=diamondThin;endFill=0;endSize=24;html=1;rounded=0;" edge="1" parent="WIyWlLk6GJQsqaUBKTNV-1">
          <mxGeometry width="160" relative="1" as="geometry">
            <mxPoint x="307" y="565" as="sourcePoint" />
            <mxPoint x="364" y="565" as="targetPoint" />
          </mxGeometry>
        </mxCell>
        <mxCell id="TM20qlrnrpLHod3Iwz9V-1" value="" style="endArrow=diamondThin;endFill=0;endSize=24;html=1;rounded=0;exitX=0.481;exitY=0.009;exitDx=0;exitDy=0;exitPerimeter=0;entryX=-0.002;entryY=0.279;entryDx=0;entryDy=0;entryPerimeter=0;" edge="1" parent="WIyWlLk6GJQsqaUBKTNV-1" source="5Oo_oEe4z2o5IKmWvlLE-31" target="zkfFHV4jXpPFQw0GAbJ--25">
          <mxGeometry width="160" relative="1" as="geometry">
            <mxPoint x="233" y="347" as="sourcePoint" />
            <mxPoint x="290" y="347" as="targetPoint" />
            <Array as="points">
              <mxPoint x="153" y="343" />
            </Array>
          </mxGeometry>
        </mxCell>
      </root>
    </mxGraphModel>
  </diagram>
</mxfile>
